<svg xmlns="http://www.w3.org/2000/svg" version="1.1" viewBox="0 0 691.8 403.6">
  <g>
    <g id="tangible-music-lab-logo">
      <g>
        <path fill="currentColor" d="M52.3,217.5c.3.3.5.8.5,1.3v10.4c0,.5-.2.9-.5,1.3-.3.3-.8.5-1.3.5h-16.3c-.3,0-.6.2-.7.5,0,0,0,.1,0,.2v51.6c0,.9-.7,1.7-1.6,1.7,0,0,0,0-.1,0h-12.6c-.5,0-.9-.2-1.3-.5-.3-.3-.5-.8-.5-1.3v-51.6c0-.3-.2-.6-.5-.7,0,0-.1,0-.2,0H1.8c-.9,0-1.7-.6-1.8-1.6,0,0,0-.1,0-.2v-10.4c0-.5.2-.9.5-1.3.3-.3.8-.5,1.3-.5h49.3c.5,0,.9.2,1.3.5Z"/>
        <path fill="currentColor" d="M95.2,283.5l-2.2-8c0-.4-.4-.6-.8-.6,0,0,0,0,0,0h-21.9c-.4,0-.7.2-.8.6l-2.2,8c-.2.9-1,1.5-1.9,1.5h-13.7c-.5,0-1-.1-1.4-.5-.3-.4-.3-.9,0-1.4l20.4-64.6c.2-.9,1.1-1.5,2-1.5h17.3c.9,0,1.8.5,2,1.5l20.5,64.6c0,.2.1.4.1.7,0,.8-.5,1.3-1.6,1.3h-13.7c-.9,0-1.8-.5-1.9-1.5ZM73.5,261.9c0,.3.2.5.4.6,0,0,.1,0,.2,0h14.4c.2,0,.4,0,.5-.2,0-.2,0-.4,0-.5l-7.3-25.8c0-.3-.2-.5-.3-.5s-.3.2-.4.5l-7.4,25.8v.2Z"/>
        <path fill="currentColor" d="M119.8,284.5c-.3-.3-.5-.8-.5-1.3v-64.5c0-.5.2-.9.5-1.3.3-.3.8-.5,1.3-.5h11.9c.8,0,1.6.4,2,1.2l21.4,36.1c.1.3.3.4.5.3s.3-.3.3-.6v-35.2c-.1-.5,0-.9.4-1.3.3-.3.8-.5,1.3-.5h12.4c.5,0,.9.2,1.3.5.3.3.5.8.5,1.3v64.5c0,.9-.6,1.7-1.6,1.8,0,0-.1,0-.2,0h-11.9c-.8,0-1.6-.5-2-1.2l-21.4-36.6c-.1-.3-.3-.5-.5-.4s-.3.3-.3.6l.2,35.8c0,.9-.6,1.7-1.6,1.8,0,0-.1,0-.2,0h-12.5c-.5,0-.9-.2-1.2-.5Z"/>
        <path fill="currentColor" d="M193.7,282.6c-3.8-2-7-5-9.1-8.7-2.2-4-3.3-8.5-3.2-13v-19.9c-.1-4.5,1-9,3.2-13,2.2-3.7,5.3-6.7,9.1-8.7,4.2-2.1,8.9-3.2,13.6-3.1,4.7,0,9.4,1,13.6,3,3.8,1.8,6.9,4.6,9.2,8.1,2.2,3.4,3.3,7.3,3.2,11.4,0,1.1-.6,1.6-1.8,1.6h-12.6c-1.2,0-1.8-.2-1.8-.6v-.6c0-2.4-.9-4.8-2.7-6.5-1.9-1.8-4.6-2.8-7.2-2.7-2.7-.1-5.3.9-7.2,2.9-1.9,2.1-2.8,4.8-2.7,7.6v20.9c-.1,2.8,1,5.6,3,7.6,2,2,4.8,3,7.6,2.9,2.5.1,5-.7,6.9-2.3,1.8-1.6,2.7-4,2.6-6.4v-2.5c0-.3-.2-.6-.5-.7,0,0-.1,0-.2,0h-8.9c-.9,0-1.7-.7-1.7-1.6,0,0,0-.1,0-.2v-9.5c0-.5.2-.9.5-1.3.3-.3.8-.5,1.3-.5h23.7c.9,0,1.7.7,1.7,1.6,0,0,0,.1,0,.2v12.6c0,4.5-1,8.9-3.2,12.8-2.1,3.7-5.3,6.6-9.1,8.5-4.2,2.1-8.9,3.1-13.6,3-4.7.1-9.4-1-13.6-3.1Z"/>
        <path fill="currentColor" d="M241.8,284.5c-.3-.3-.5-.8-.5-1.3v-64.5c0-.5.2-.9.5-1.3.3-.3.8-.5,1.3-.5h12.6c.5,0,.9.2,1.3.5.3.3.5.8.5,1.3v64.5c0,.9-.7,1.7-1.6,1.8,0,0,0,0-.1,0h-12.6c-.5,0-.9-.2-1.2-.5Z"/>
        <path fill="currentColor" d="M309.1,249.9c0,.2.1.3.4.5,5.8,3,8.6,8.2,8.6,15.3s-2.2,11.3-6.7,14.5c-4.5,3.2-10.3,4.7-17.6,4.7h-25.2c-.9,0-1.7-.7-1.7-1.6,0,0,0-.1,0-.2v-64.4c0-.5.2-.9.5-1.3.3-.3.8-.5,1.3-.5h24.5c7.9,0,13.9,1.5,17.9,4.5,4,3,6.1,7.8,6.1,14.5,0,6.3-2.5,10.8-7.6,13.5-.3.1-.4.3-.4.5ZM283,231.5v11.9c0,.3.2.6.5.7,0,0,.1,0,.2,0h9.4c2.2.1,4.3-.5,6.1-1.7,1.4-1.2,2.2-3,2.1-4.8.1-1.9-.7-3.7-2.1-5-1.8-1.3-3.9-1.9-6.1-1.8h-9.4c-.3,0-.6.2-.7.5,0,0,0,0,0,.1h0ZM299.8,269.3c1.5-1.3,2.3-3.2,2.1-5.2.1-1.9-.7-3.8-2.1-5.1-1.7-1.3-3.9-2-6.1-1.8h-10.2c-.3,0-.6.2-.7.5,0,0,0,.1,0,.2v12.5c0,.3.2.6.5.7,0,0,.1,0,.2,0h10.2c2.1.1,4.3-.5,6-1.8Z"/>
        <path fill="currentColor" d="M326.4,284.5c-.3-.3-.5-.8-.5-1.3v-64.5c0-.9.7-1.7,1.6-1.7,0,0,.1,0,.2,0h12.6c.5,0,.9.2,1.3.5.3.3.5.8.5,1.3v51.8c0,.3.2.6.5.7,0,0,.1,0,.2,0h30.2c.9,0,1.7.7,1.7,1.6,0,0,0,.1,0,.2v10.3c0,.9-.7,1.7-1.6,1.7,0,0,0,0-.1,0h-45.2c-.5,0-.9-.1-1.3-.5Z"/>
        <path fill="currentColor" d="M429.1,230.3c-.3.3-.8.5-1.3.5h-29.7c-.3,0-.6.2-.7.5,0,0,0,.1,0,.2v11.5c0,.3.2.6.5.7,0,0,.1,0,.2,0h18.7c.9,0,1.7.7,1.8,1.6,0,0,0,0,0,.1v10.2c0,.9-.7,1.7-1.6,1.7,0,0-.1,0-.2,0h-18.7c-.3,0-.6.2-.7.5,0,0,0,.1,0,.2v12.4c0,.3.2.6.5.7,0,0,.1,0,.2,0h29.7c.5,0,.9.2,1.3.5.3.3.5.8.5,1.3v10.3c0,.5-.2.9-.5,1.3-.3.3-.8.5-1.3.5h-44.8c-.9,0-1.7-.7-1.8-1.6,0,0,0,0,0-.1v-64.4c0-.5.2-.9.5-1.3.3-.3.8-.5,1.3-.5h44.8c.9,0,1.7.7,1.8,1.6,0,0,0,0,0,.1v10.3c0,.5-.2.9-.5,1.3Z"/>
      </g>
      <g>
        <path fill="currentColor" d="M165.3,402.3c-.3-.3-.5-.8-.5-1.3v-64.5c0-.5.2-.9.5-1.3.3-.3.8-.5,1.3-.5h12.5c.8,0,1.6.4,2,1.2l13,20.9c.3.5.7.5,1,0l13-20.9c.4-.7,1.2-1.2,2-1.2h12.5c.5,0,.9.2,1.3.5.3.3.5.8.5,1.3v64.5c0,.9-.7,1.7-1.6,1.8,0,0,0,0-.1,0h-12.6c-.9,0-1.7-.7-1.8-1.6,0,0,0,0,0-.1v-38c0-.3-.1-.5-.3-.6s-.4,0-.5.4l-7.9,12.8c-.4.7-1.2,1.2-2,1.2h-6c-.8,0-1.6-.4-2-1.2l-7.9-12.8c-.1-.3-.3-.5-.5-.4s-.3.2-.3.6v38c0,.9-.7,1.7-1.6,1.8,0,0,0,0-.1,0h-12.6c-.5,0-.9-.2-1.3-.5Z"/>
        <path fill="currentColor" d="M246.5,400.6c-3.8-1.9-7-4.8-9.1-8.4-2.2-3.8-3.3-8.1-3.3-12.5v-43.1c0-.9.7-1.7,1.6-1.8,0,0,0,0,.1,0h12.6c.5,0,.9.2,1.3.5.3.3.5.8.5,1.3v43.1c-.1,2.7.8,5.3,2.7,7.3,1.9,1.9,4.5,2.9,7.1,2.8,2.6.1,5.2-.9,7-2.8,1.8-2,2.8-4.6,2.7-7.3v-43.1c0-.5.2-.9.5-1.3.3-.3.8-.5,1.3-.5h12.6c.5,0,.9.2,1.3.5.3.3.5.8.5,1.3v43.1c0,4.4-1,8.7-3.2,12.5-2.1,3.6-5.3,6.6-9.1,8.4-8.6,3.9-18.5,3.9-27.1,0h0Z"/>
        <path fill="currentColor" d="M305.7,401c-3.7-1.5-6.8-4.1-9.1-7.4-2.2-3.3-3.3-7.2-3.2-11.1v-1.3c0-.9.7-1.7,1.6-1.7,0,0,.1,0,.2,0h12.3c.4,0,.9,0,1.3.3.3.2.5.5.5.8v1.2c0,2.1,1.1,3.9,3.1,5.5,2.4,1.7,5.2,2.6,8.1,2.4,2.8,0,4.9-.6,6.3-1.8,1.3-1.1,2-2.6,2-4.3,0-1.7-.9-3.3-2.4-4.2-2.7-1.4-5.6-2.6-8.5-3.4l-2.1-.7c-3.7-1.2-7.4-2.7-10.9-4.4-3.1-1.6-5.8-3.8-8-6.6-2.3-3-3.4-6.7-3.3-10.4,0-3.8,1-7.4,3.2-10.5,2.2-3.1,5.2-5.5,8.7-6.9,4-1.7,8.3-2.5,12.7-2.4,4.7,0,9.3.8,13.6,2.7,3.8,1.6,7,4.3,9.4,7.7,2.3,3.3,3.5,7.3,3.4,11.4v.8c0,.9-.6,1.7-1.6,1.8,0,0-.1,0-.2,0h-12.4c-.4,0-.9,0-1.3-.2-.3-.1-.5-.4-.5-.7v-.9c0-2.3-1.2-4.5-3-6-2.3-1.8-5.1-2.8-8.1-2.6-2.1-.1-4.2.4-5.9,1.6-1.4,1-2.2,2.6-2.1,4.4,0,1.3.4,2.6,1.4,3.5,1.2,1.1,2.7,2,4.2,2.6,1.9.8,4.8,1.9,8.8,3.2,4.5,1.6,8.1,2.9,10.6,4.1,2.8,1.3,5.2,3.3,7.1,5.7,2.2,2.6,3.3,6.1,3.4,10.3,0,3.8-1.1,7.6-3.2,10.7-2.3,3.2-5.4,5.7-9,7.1-8.7,3.4-18.3,3.4-27,0h0Z"/>
        <path fill="currentColor" d="M353.5,402.3c-.3-.3-.5-.8-.5-1.3v-64.5c0-.5.2-.9.5-1.3.3-.3.8-.5,1.3-.5h12.6c.5,0,.9.2,1.3.5.3.3.5.8.5,1.3v64.5c0,.9-.6,1.7-1.6,1.8,0,0-.1,0-.2,0h-12.6c-.5,0-.9-.2-1.3-.5Z"/>
        <path fill="currentColor" d="M390.5,400.6c-3.8-1.9-7-4.9-9.1-8.5-2.2-3.9-3.4-8.3-3.3-12.8v-21c0-4.4,1-8.8,3.3-12.7,2.2-3.6,5.3-6.6,9.1-8.5,4.2-2.1,8.9-3.1,13.6-3,4.7,0,9.4.9,13.6,2.9,3.7,1.8,6.9,4.6,9.1,8.1,2.2,3.6,3.3,7.8,3.2,12,0,.6-.5.9-1.6,1.1l-12.7.9h-.5c-.9,0-1.4-.2-1.4-.5v-.6c.1-2.7-.9-5.3-2.7-7.3-4.1-3.6-10.3-3.6-14.4,0-1.8,1.9-2.8,4.6-2.7,7.2v22c-.2,5.5,4.1,10,9.6,10.2,5.5.2,10-4.1,10.2-9.6,0-.2,0-.4,0-.6,0-.3.1-.7.4-.9.4-.2.9-.3,1.3-.2l12.7.7c1.1.1,1.6.3,1.6.5v.5c0,4.3-1,8.5-3.2,12.1-2.2,3.5-5.4,6.3-9.1,8.1-4.3,2-8.9,3-13.6,2.9-4.7.1-9.4-.9-13.6-3Z"/>
      </g>
      <g>
        <path fill="currentColor" d="M457.9,402.3c-.3-.3-.5-.8-.5-1.3v-64.5c0-.5.2-.9.5-1.3.3-.3.8-.5,1.3-.5h12.7c.9,0,1.7.7,1.7,1.6,0,0,0,.1,0,.2v51.8c0,.3.2.6.5.7,0,0,.1,0,.2,0h30.2c.9,0,1.7.7,1.8,1.6,0,0,0,0,0,.1v10.3c0,.9-.7,1.7-1.6,1.8,0,0,0,0-.1,0h-45.3c-.5,0-.9-.2-1.3-.5Z"/>
        <path fill="currentColor" d="M556.9,401.4l-2.2-8c0-.4-.4-.6-.8-.6,0,0,0,0,0,0h-22c-.4,0-.7.2-.8.6l-2.2,8c-.2.9-1,1.5-1.9,1.5h-13.7c-.5,0-1-.1-1.3-.5-.3-.4-.3-.9,0-1.4l20.4-64.6c.3-.9,1.1-1.5,2-1.5h17.2c.9,0,1.8.5,2,1.5l20.6,64.6c0,.2.1.4,0,.7,0,.8-.5,1.3-1.6,1.3h-13.7c-.9,0-1.8-.6-1.9-1.5ZM535.2,379.8c0,.3.2.5.4.6,0,0,.1,0,.2,0h14.4c.2,0,.4,0,.5-.2,0-.2,0-.4,0-.5l-7.4-25.8c0-.3-.2-.5-.3-.5s-.3.2-.4.5l-7.4,25.8v.2Z"/>
        <path fill="currentColor" d="M623.2,367.8c0,.2.1.4.4.5,5.8,3,8.6,8.2,8.6,15.3s-2.2,11.3-6.7,14.5-10.3,4.8-17.6,4.8h-25.2c-.9,0-1.7-.7-1.8-1.6,0,0,0,0,0-.1v-64.5c0-.5.2-.9.5-1.3.3-.3.8-.5,1.3-.5h24.5c7.9,0,13.9,1.5,17.9,4.5,4.1,3,6.1,7.8,6.1,14.5,0,6.3-2.5,10.8-7.6,13.5-.3.1-.4.3-.4.5ZM597.1,349.3v11.8c0,.3.2.6.5.7,0,0,.1,0,.2,0h9.4c2.2.1,4.3-.5,6.1-1.7,1.4-1.2,2.2-3,2.1-4.8.1-1.9-.7-3.7-2.1-5-1.8-1.3-3.9-1.9-6.1-1.8h-9.4c-.3,0-.6.1-.7.4,0,0,0,.2,0,.2ZM614,387.1c1.5-1.3,2.3-3.2,2.1-5.2.1-1.9-.7-3.8-2.1-5.1-1.7-1.3-3.9-2-6.1-1.8h-10.2c-.3,0-.6.2-.7.5,0,0,0,.1,0,.2v12.5c0,.3.2.6.5.7,0,0,.1,0,.2,0h10.2c2.1.1,4.3-.5,6-1.8h0Z"/>
      </g>
      <path fill="currentColor" d="M690.1,71.4L620.5,1.8l-1.8-1.8h-235.2c-1.3,0-2.4,1.1-2.4,2.4v113.8c0,1.5.7,3,1.7,4.1l69.7,69.7c1.1,1,2.6,1.6,4.1,1.7h232.8c1.3,0,2.4-1.1,2.4-2.4v-113.8c0-1.5-.7-3-1.7-4.1ZM647.9,128.2c0,1.2-1,2.1-2.1,2.1h-10.9c-1.2,0-2.1-.9-2.1-2.1v-39.5c0-1.2-.8-1.5-1.7-.9l-58,43.9c-.9.7-1.7.3-1.7-.8v-42.2c0-1.2-.8-1.5-1.7-.9l-58,43.9c-.9.7-1.7.3-1.7-.8v-41c0-1.2-.7-1.5-1.6-.7l-50.7,43.6c-.9.8-1.6.4-1.6-.7v-54.1c0-1.2-1-2.1-2.1-2.1h-26.9c-1.2,0-2.1-1-2.1-2.1v-9.6c0-1.2.9-2.1,2.1-2.1h42c1.2,0,2.1.9,2.1,2.1v37.8c0,1.2.7,1.5,1.6.7l50.7-43.6c.9-.8,1.6-.4,1.6.7v43.4c0,1.2.8,1.5,1.7.8l58-43.9c.9-.7,1.7-.3,1.7.8v42.2c0,1.2.8,1.5,1.7.8l58-43.9c.9-.7,1.7-.3,1.7.8v67.3Z"/>
    </g>
  </g>
</svg>