<svg xmlns="http://www.w3.org/2000/svg" viewBox="0 0 768 768">
  <title>brand-image</title>
  <path fill="currentColor" d="M717.31,331,566.72,180.42c-2.05-2-3.74-3.74-3.8-3.8s-2.42-.08-5.29-.08H54.21A5.24,5.24,0,0,0,49,181.77V428a14.5,14.5,0,0,0,3.69,8.9L203.45,587.71a14.52,14.52,0,0,0,8.89,3.68H715.79a5.24,5.24,0,0,0,5.21-5.23V339.91A14.5,14.5,0,0,0,717.31,331ZM626.08,453.88a4.6,4.6,0,0,1-4.61,4.58H598a4.59,4.59,0,0,1-4.58-4.58V368.47c0-2.52-1.65-3.36-3.67-1.83L464.26,461.51c-2,1.53-3.64.72-3.64-1.81V368.47c0-2.52-1.66-3.36-3.68-1.83L331.46,461.51c-2,1.53-3.64.72-3.64-1.81V371c0-2.53-1.59-3.24-3.49-1.59l-109.66,94.4c-1.9,1.66-3.46.94-3.46-1.58v-117a4.64,4.64,0,0,0-4.61-4.61H148.5a4.59,4.59,0,0,1-4.58-4.58v-20.8a4.59,4.59,0,0,1,4.58-4.58h90.76a4.59,4.59,0,0,1,4.58,4.58V396.9c0,2.52,1.59,3.27,3.49,1.62L357,304.08c1.9-1.65,3.49-.93,3.49,1.59v93.82c0,2.52,1.62,3.33,3.64,1.8L489.6,306.42c2-1.53,3.68-.69,3.68,1.84v91.23c0,2.52,1.65,3.33,3.64,1.8L622.4,306.42c2-1.53,3.68-.69,3.68,1.84Z"/>
</svg>